<mxfile host="app.diagrams.net" modified="2023-12-07T09:46:52.482Z" agent="Mozilla/5.0 (X11; Linux x86_64; rv:109.0) Gecko/20100101 Firefox/115.0" etag="zG3fN57BjVsMYVj1oLMY" version="22.1.7" type="device">
  <diagram name="PÃ¡gina-1" id="dATdPX-heJEacPiVSRp5">
    <mxGraphModel dx="1165" dy="588" grid="1" gridSize="10" guides="1" tooltips="1" connect="1" arrows="1" fold="1" page="1" pageScale="1" pageWidth="1169" pageHeight="827" background="#b6eeb8" math="0" shadow="0">
      <root>
        <mxCell id="0" />
        <mxCell id="1" parent="0" />
        <mxCell id="YSW4tCNklf8-2GxXBgUP-7" style="edgeStyle=orthogonalEdgeStyle;rounded=0;orthogonalLoop=1;jettySize=auto;html=1;exitX=0.5;exitY=0;exitDx=0;exitDy=0;entryX=0;entryY=0.5;entryDx=0;entryDy=0;" edge="1" parent="1" source="YSW4tCNklf8-2GxXBgUP-1" target="YSW4tCNklf8-2GxXBgUP-3">
          <mxGeometry relative="1" as="geometry" />
        </mxCell>
        <mxCell id="YSW4tCNklf8-2GxXBgUP-11" style="edgeStyle=orthogonalEdgeStyle;rounded=0;orthogonalLoop=1;jettySize=auto;html=1;exitX=0.5;exitY=1;exitDx=0;exitDy=0;entryX=0;entryY=0.5;entryDx=0;entryDy=0;" edge="1" parent="1" source="YSW4tCNklf8-2GxXBgUP-1" target="YSW4tCNklf8-2GxXBgUP-5">
          <mxGeometry relative="1" as="geometry" />
        </mxCell>
        <mxCell id="YSW4tCNklf8-2GxXBgUP-1" value="Cocineros" style="rounded=1;whiteSpace=wrap;html=1;" vertex="1" parent="1">
          <mxGeometry x="280" y="290" width="120" height="60" as="geometry" />
        </mxCell>
        <mxCell id="YSW4tCNklf8-2GxXBgUP-2" value="&lt;b&gt;&lt;i&gt;&lt;font style=&quot;font-size: 25px;&quot;&gt;Diagrama 1: Inventario y proveedores&lt;br&gt;&lt;/font&gt;&lt;/i&gt;&lt;/b&gt;" style="rounded=1;whiteSpace=wrap;html=1;" vertex="1" parent="1">
          <mxGeometry x="310" y="70" width="460" height="60" as="geometry" />
        </mxCell>
        <mxCell id="YSW4tCNklf8-2GxXBgUP-9" style="edgeStyle=orthogonalEdgeStyle;rounded=0;orthogonalLoop=1;jettySize=auto;html=1;exitX=1;exitY=0.5;exitDx=0;exitDy=0;entryX=0.5;entryY=0;entryDx=0;entryDy=0;" edge="1" parent="1" source="YSW4tCNklf8-2GxXBgUP-3" target="YSW4tCNklf8-2GxXBgUP-6">
          <mxGeometry relative="1" as="geometry" />
        </mxCell>
        <mxCell id="YSW4tCNklf8-2GxXBgUP-3" value="Inventario" style="ellipse;whiteSpace=wrap;html=1;aspect=fixed;" vertex="1" parent="1">
          <mxGeometry x="420" y="170" width="80" height="80" as="geometry" />
        </mxCell>
        <mxCell id="YSW4tCNklf8-2GxXBgUP-14" style="edgeStyle=orthogonalEdgeStyle;rounded=0;orthogonalLoop=1;jettySize=auto;html=1;exitX=1;exitY=0.5;exitDx=0;exitDy=0;entryX=0;entryY=0.5;entryDx=0;entryDy=0;" edge="1" parent="1" source="YSW4tCNklf8-2GxXBgUP-5" target="YSW4tCNklf8-2GxXBgUP-13">
          <mxGeometry relative="1" as="geometry" />
        </mxCell>
        <mxCell id="YSW4tCNklf8-2GxXBgUP-5" value="Proveedores" style="ellipse;whiteSpace=wrap;html=1;aspect=fixed;" vertex="1" parent="1">
          <mxGeometry x="420" y="390" width="80" height="80" as="geometry" />
        </mxCell>
        <mxCell id="YSW4tCNklf8-2GxXBgUP-6" value="Stock ingredientes" style="shape=partialRectangle;whiteSpace=wrap;html=1;left=0;right=0;fillColor=none;" vertex="1" parent="1">
          <mxGeometry x="650" y="280" width="120" height="40" as="geometry" />
        </mxCell>
        <mxCell id="YSW4tCNklf8-2GxXBgUP-8" value="&lt;font style=&quot;font-size: 10px;&quot;&gt;Hacer&lt;/font&gt;" style="text;html=1;strokeColor=none;fillColor=none;align=center;verticalAlign=middle;whiteSpace=wrap;rounded=0;" vertex="1" parent="1">
          <mxGeometry x="280" y="230" width="60" height="30" as="geometry" />
        </mxCell>
        <mxCell id="YSW4tCNklf8-2GxXBgUP-10" value="&lt;font style=&quot;font-size: 10px;&quot;&gt;Actualizar&lt;/font&gt;" style="text;html=1;strokeColor=none;fillColor=none;align=center;verticalAlign=middle;whiteSpace=wrap;rounded=0;" vertex="1" parent="1">
          <mxGeometry x="540" y="180" width="60" height="30" as="geometry" />
        </mxCell>
        <mxCell id="YSW4tCNklf8-2GxXBgUP-12" value="&lt;font style=&quot;font-size: 10px;&quot;&gt;Contactar&lt;/font&gt;" style="text;html=1;strokeColor=none;fillColor=none;align=center;verticalAlign=middle;whiteSpace=wrap;rounded=0;" vertex="1" parent="1">
          <mxGeometry x="280" y="370" width="60" height="30" as="geometry" />
        </mxCell>
        <mxCell id="YSW4tCNklf8-2GxXBgUP-23" style="edgeStyle=orthogonalEdgeStyle;rounded=0;orthogonalLoop=1;jettySize=auto;html=1;exitX=0.25;exitY=0;exitDx=0;exitDy=0;entryX=0.5;entryY=1;entryDx=0;entryDy=0;" edge="1" parent="1" source="YSW4tCNklf8-2GxXBgUP-13" target="YSW4tCNklf8-2GxXBgUP-18">
          <mxGeometry relative="1" as="geometry" />
        </mxCell>
        <mxCell id="YSW4tCNklf8-2GxXBgUP-24" style="edgeStyle=orthogonalEdgeStyle;rounded=0;orthogonalLoop=1;jettySize=auto;html=1;exitX=0.5;exitY=0;exitDx=0;exitDy=0;entryX=0.5;entryY=1;entryDx=0;entryDy=0;" edge="1" parent="1" source="YSW4tCNklf8-2GxXBgUP-13" target="YSW4tCNklf8-2GxXBgUP-6">
          <mxGeometry relative="1" as="geometry" />
        </mxCell>
        <mxCell id="YSW4tCNklf8-2GxXBgUP-13" value="Factura" style="rounded=1;whiteSpace=wrap;html=1;" vertex="1" parent="1">
          <mxGeometry x="650" y="400" width="120" height="60" as="geometry" />
        </mxCell>
        <mxCell id="YSW4tCNklf8-2GxXBgUP-15" value="&lt;font style=&quot;font-size: 10px;&quot;&gt;Emitir&lt;/font&gt;" style="text;html=1;strokeColor=none;fillColor=none;align=center;verticalAlign=middle;whiteSpace=wrap;rounded=0;" vertex="1" parent="1">
          <mxGeometry x="540" y="430" width="60" height="30" as="geometry" />
        </mxCell>
        <mxCell id="YSW4tCNklf8-2GxXBgUP-17" value="&lt;font style=&quot;font-size: 10px;&quot;&gt;Actualizar&lt;/font&gt;" style="text;html=1;strokeColor=none;fillColor=none;align=center;verticalAlign=middle;whiteSpace=wrap;rounded=0;" vertex="1" parent="1">
          <mxGeometry x="710" y="350" width="60" height="30" as="geometry" />
        </mxCell>
        <mxCell id="YSW4tCNklf8-2GxXBgUP-18" value="Registro&lt;br&gt;&lt;div&gt;facturas&lt;br&gt;&lt;/div&gt;" style="shape=partialRectangle;whiteSpace=wrap;html=1;left=0;right=0;fillColor=none;" vertex="1" parent="1">
          <mxGeometry x="480" y="280" width="120" height="40" as="geometry" />
        </mxCell>
        <mxCell id="YSW4tCNklf8-2GxXBgUP-20" value="&lt;font style=&quot;font-size: 10px;&quot;&gt;Almacenar&lt;/font&gt;" style="text;html=1;strokeColor=none;fillColor=none;align=center;verticalAlign=middle;whiteSpace=wrap;rounded=0;" vertex="1" parent="1">
          <mxGeometry x="570" y="370" width="60" height="30" as="geometry" />
        </mxCell>
        <mxCell id="YSW4tCNklf8-2GxXBgUP-26" value="1.1" style="text;html=1;strokeColor=none;fillColor=none;align=center;verticalAlign=middle;whiteSpace=wrap;rounded=0;" vertex="1" parent="1">
          <mxGeometry x="445" y="180" width="30" as="geometry" />
        </mxCell>
        <mxCell id="YSW4tCNklf8-2GxXBgUP-27" value="1.2" style="text;html=1;strokeColor=none;fillColor=none;align=center;verticalAlign=middle;whiteSpace=wrap;rounded=0;" vertex="1" parent="1">
          <mxGeometry x="450" y="400" width="20" height="10" as="geometry" />
        </mxCell>
      </root>
    </mxGraphModel>
  </diagram>
</mxfile>
